<?xml version="1.0" encoding="utf-8"?>
<!-- Generator: Adobe Illustrator 25.2.1, SVG Export Plug-In . SVG Version: 6.00 Build 0)  -->
<svg version="1.1" id="Layer_1" xmlns="http://www.w3.org/2000/svg" xmlns:xlink="http://www.w3.org/1999/xlink" x="0px" y="0px"
	 viewBox="0 0 144 118.7" style="enable-background:new 0 0 144 118.7;" xml:space="preserve">
<style type="text/css">
	.st0{fill:#FFFFFF;}
</style>
<g>
	<path d="M74.3,50.4L69,45.7c0,0,5.7-13.5-0.9-24.9c0,0,1.1,16.9-1.8,22.2c0,0-14.9-12.6-21.9-16.4c0,0,8.9,36.3,9.9,39.8
		c0,0-1.3,2.4-11.3,9.8c-2.4,1.7-4.2,4.1-5.3,6.8c-1.9,4.6-2.7,11.5,6.2,15.8c1,0.5,2.2,0.8,3.4,0.8c3.1,0,9.3-0.7,11.6-6.5
		c0,0,3.7-6.2,0.1-25.6c0,0,7.3-11.9,9-18.1l7.1,6.2c0,0-0.2,32.4,5.9,37.8l10.1,9.7c0,0-9.6-14.7-11.2-42.4c0,0,3.9,3.7,8,5.1
		c2.6,0.8,5.4-0.1,6.9-2.3c2.4-3.4,5.2-10.6,3.2-25.2c0,0-1.8-21.6-12.1-20.2C77.5,19.1,74.2,39.9,74.3,50.4z"/>
	<g>
		<path class="st0" d="M55.2,70.9c0,0-11.9,10.6-13.1,14.2c-1.5,4.6,4,13.7,11.2,8.6C56.3,91.5,59.2,82.7,55.2,70.9z"/>
		<path class="st0" d="M49.5,34.2l8.2,26.7c0,0,7.3-12.9,7.1-14.5L49.5,34.2z"/>
		<path class="st0" d="M79.1,53.3c0.1-4.8,0.8-19.2,5.1-29.3c0.5-1.3,2.1-1.7,3.2-0.8c1.7,1.4,4,5,5.5,13.8
			c2.7,15.8,0.2,24-3.6,24.6c-3.5,0.6-4.8-1.9-8.9-5.5C79.5,55.4,79.1,54.4,79.1,53.3z"/>
	</g>
</g>
</svg>
